<?xml version="1.0" encoding="utf-8"?>
<!-- Generator: Adobe Illustrator 16.0.0, SVG Export Plug-In . SVG Version: 6.00 Build 0)  -->
<!DOCTYPE svg PUBLIC "-//W3C//DTD SVG 1.1//EN" "http://www.w3.org/Graphics/SVG/1.1/DTD/svg11.dtd">
<svg version="1.1" id="Layer_1" xmlns="http://www.w3.org/2000/svg" xmlns:xlink="http://www.w3.org/1999/xlink" x="0px" y="0px"
	 width="739.098px" height="483px" viewBox="0 0 739.098 483" enable-background="new 0 0 739.098 483" xml:space="preserve">
<path opacity="0.6" fill="#BDCCD4" stroke="#000000" stroke-width="2" stroke-miterlimit="10" d="M345,464.355
	c0,6.983-2.059,12.645-5.485,12.645H178.205c-3.427,0-6.205-5.661-6.205-12.645V18.645C172,11.661,174.778,6,178.205,6h161.311
	C342.941,6,345,11.661,345,18.645V464.355z"/>
<path fill="#FF1D25" stroke="#000000" stroke-width="2" stroke-miterlimit="10" d="M148,114.667c0,6.119-3.539,11.333-8.624,11.333
	H9.707C4.622,126,0,120.787,0,114.667V79.58C0,73.461,4.622,69,9.707,69h129.669c5.085,0,8.624,4.461,8.624,10.58V114.667z"/>
<g>
	<rect x="1.109" y="88.744" fill="none" width="148.965" height="23.256"/>
	<path d="M33.707,89.502v8.377c0,3.17,1.407,4.514,3.296,4.514c2.1,0,3.443-1.386,3.443-4.514v-8.377h1.848v8.251
		c0,4.346-2.289,6.131-5.354,6.131c-2.897,0-5.081-1.659-5.081-6.047v-8.335H33.707z"/>
	<path d="M45.404,96.242c0-1.05-0.021-1.911-0.084-2.75h1.638l0.105,1.68h0.042c0.504-0.966,1.68-1.911,3.359-1.911
		c1.407,0,3.59,0.84,3.59,4.325v6.068h-1.848v-5.858c0-1.638-0.609-3.002-2.352-3.002c-1.218,0-2.163,0.861-2.478,1.89
		c-0.084,0.231-0.126,0.546-0.126,0.861v6.11h-1.848V96.242z"/>
	<path d="M59.2,90.573v2.918h2.646v1.407H59.2v5.48c0,1.26,0.357,1.974,1.386,1.974c0.483,0,0.84-0.063,1.071-0.126l0.084,1.386
		c-0.357,0.147-0.924,0.252-1.638,0.252c-0.861,0-1.554-0.273-1.995-0.777c-0.525-0.546-0.714-1.449-0.714-2.646v-5.543H55.82
		v-1.407h1.575v-2.436L59.2,90.573z"/>
	<path d="M63.925,96.662c0-1.197-0.021-2.226-0.084-3.17h1.617l0.063,1.995h0.084c0.462-1.365,1.575-2.226,2.813-2.226
		c0.21,0,0.357,0.021,0.525,0.063v1.743c-0.189-0.042-0.378-0.063-0.63-0.063c-1.302,0-2.226,0.987-2.478,2.373
		c-0.042,0.252-0.084,0.546-0.084,0.861v5.417h-1.827V96.662z"/>
	<path d="M76.314,103.654l-0.147-1.281h-0.063c-0.567,0.798-1.659,1.512-3.107,1.512c-2.058,0-3.107-1.449-3.107-2.918
		c0-2.457,2.184-3.8,6.11-3.779v-0.21c0-0.84-0.231-2.352-2.31-2.352c-0.945,0-1.932,0.294-2.646,0.756l-0.42-1.218
		c0.84-0.546,2.058-0.903,3.338-0.903c3.107,0,3.863,2.121,3.863,4.157v3.8c0,0.882,0.042,1.743,0.168,2.436H76.314z M76.041,98.468
		c-2.016-0.042-4.304,0.315-4.304,2.289c0,1.197,0.798,1.764,1.743,1.764c1.323,0,2.163-0.84,2.457-1.701
		c0.063-0.189,0.105-0.399,0.105-0.588V98.468z"/>
	<path d="M88.053,103.276c-0.483,0.252-1.554,0.588-2.918,0.588c-3.065,0-5.06-2.079-5.06-5.186c0-3.128,2.142-5.396,5.459-5.396
		c1.092,0,2.058,0.273,2.562,0.525l-0.42,1.428c-0.441-0.252-1.134-0.483-2.142-0.483c-2.331,0-3.59,1.722-3.59,3.842
		c0,2.352,1.512,3.8,3.527,3.8c1.05,0,1.743-0.273,2.268-0.504L88.053,103.276z"/>
	<path d="M92.044,98.153h0.042c0.252-0.357,0.609-0.798,0.903-1.155l2.981-3.506h2.226L94.27,97.67l4.472,5.984h-2.247l-3.506-4.871
		l-0.945,1.05v3.821h-1.827V88.747h1.827V98.153z"/>
	<path d="M101.095,98.909c0.042,2.499,1.638,3.527,3.485,3.527c1.323,0,2.121-0.231,2.813-0.525l0.315,1.323
		c-0.651,0.294-1.764,0.63-3.38,0.63c-3.128,0-4.997-2.058-4.997-5.123s1.806-5.48,4.766-5.48c3.317,0,4.199,2.918,4.199,4.787
		c0,0.378-0.042,0.672-0.063,0.861H101.095z M106.512,97.586c0.021-1.176-0.483-3.002-2.562-3.002c-1.869,0-2.688,1.722-2.834,3.002
		H106.512z"/>
	<path d="M119.363,88.747v12.283c0,0.903,0.021,1.932,0.084,2.625h-1.659l-0.084-1.764h-0.042c-0.567,1.134-1.806,1.995-3.464,1.995
		c-2.457,0-4.346-2.079-4.346-5.165c-0.021-3.38,2.079-5.459,4.556-5.459c1.554,0,2.604,0.735,3.065,1.554h0.042v-6.068H119.363z
		 M117.516,97.628c0-0.231-0.021-0.546-0.084-0.777c-0.273-1.176-1.281-2.142-2.667-2.142c-1.911,0-3.044,1.68-3.044,3.926
		c0,2.058,1.008,3.758,3.002,3.758c1.239,0,2.373-0.819,2.708-2.205c0.063-0.252,0.084-0.504,0.084-0.798V97.628z"/>
</g>
<path fill="#7AC943" stroke="#000000" stroke-width="2" stroke-miterlimit="10" d="M331,114.667c0,6.119-3.539,11.333-8.624,11.333
	H192.707c-5.085,0-9.707-5.213-9.707-11.333V79.58c0-6.119,4.622-10.58,9.707-10.58h129.669c5.085,0,8.624,4.461,8.624,10.58
	V114.667z"/>
<g>
	<rect x="184.109" y="88.744" fill="none" width="148.965" height="23.256"/>
	<path d="M209.819,89.502v8.377c0,3.17,1.407,4.514,3.296,4.514c2.1,0,3.443-1.386,3.443-4.514v-8.377h1.848v8.251
		c0,4.346-2.289,6.131-5.354,6.131c-2.897,0-5.081-1.659-5.081-6.047v-8.335H209.819z"/>
	<path d="M221.516,96.242c0-1.05-0.021-1.911-0.084-2.75h1.638l0.105,1.68h0.042c0.504-0.966,1.68-1.911,3.359-1.911
		c1.407,0,3.59,0.84,3.59,4.325v6.068h-1.848v-5.858c0-1.638-0.609-3.002-2.352-3.002c-1.218,0-2.163,0.861-2.478,1.89
		c-0.084,0.231-0.126,0.546-0.126,0.861v6.11h-1.848V96.242z"/>
	<path d="M233.171,96.242c0-1.05-0.021-1.911-0.084-2.75h1.617l0.084,1.638h0.063c0.567-0.966,1.512-1.869,3.191-1.869
		c1.386,0,2.436,0.84,2.876,2.037h0.042c0.315-0.567,0.714-1.008,1.134-1.323c0.609-0.462,1.281-0.714,2.247-0.714
		c1.344,0,3.338,0.882,3.338,4.409v5.984h-1.806v-5.753c0-1.953-0.714-3.128-2.205-3.128c-1.05,0-1.869,0.777-2.184,1.68
		c-0.084,0.252-0.147,0.588-0.147,0.924v6.278h-1.806v-6.089c0-1.617-0.714-2.792-2.121-2.792c-1.155,0-1.995,0.924-2.289,1.848
		c-0.105,0.273-0.147,0.588-0.147,0.903v6.131h-1.806V96.242z"/>
	<path d="M259.881,98.489c0,3.758-2.604,5.396-5.06,5.396c-2.75,0-4.871-2.016-4.871-5.228c0-3.401,2.226-5.396,5.039-5.396
		C257.908,93.261,259.881,95.381,259.881,98.489z M251.819,98.594c0,2.226,1.281,3.905,3.086,3.905c1.764,0,3.086-1.659,3.086-3.947
		c0-1.722-0.861-3.905-3.044-3.905S251.819,96.662,251.819,98.594z"/>
	<path d="M270.99,88.747v12.283c0,0.903,0.021,1.932,0.084,2.625h-1.659l-0.084-1.764h-0.042c-0.567,1.134-1.806,1.995-3.464,1.995
		c-2.457,0-4.346-2.079-4.346-5.165c-0.021-3.38,2.079-5.459,4.556-5.459c1.554,0,2.604,0.735,3.065,1.554h0.042v-6.068H270.99z
		 M269.143,97.628c0-0.231-0.021-0.546-0.084-0.777c-0.273-1.176-1.281-2.142-2.667-2.142c-1.911,0-3.044,1.68-3.044,3.926
		c0,2.058,1.008,3.758,3.002,3.758c1.239,0,2.373-0.819,2.708-2.205c0.063-0.252,0.084-0.504,0.084-0.798V97.628z"/>
	<path d="M276.115,90.636c0.021,0.63-0.441,1.134-1.176,1.134c-0.651,0-1.113-0.504-1.113-1.134c0-0.651,0.483-1.155,1.155-1.155
		C275.674,89.481,276.115,89.985,276.115,90.636z M274.058,103.654V93.492h1.848v10.162H274.058z"/>
	<path d="M279.161,103.654v-8.755h-1.428v-1.407h1.428v-0.546c0-2.688,1.575-4.43,4.43-4.43c0.945,0,2.058,0.294,2.583,0.672
		l-0.525,1.407c-0.441-0.315-1.239-0.588-2.142-0.588c-1.953,0-2.52,1.365-2.52,2.981v0.504h5.9v10.162h-1.827v-8.755h-4.073v8.755
		H279.161z"/>
	<path d="M290.983,98.909c0.042,2.499,1.638,3.527,3.485,3.527c1.323,0,2.121-0.231,2.813-0.525l0.315,1.323
		c-0.651,0.294-1.764,0.63-3.38,0.63c-3.128,0-4.997-2.058-4.997-5.123s1.806-5.48,4.766-5.48c3.317,0,4.199,2.918,4.199,4.787
		c0,0.378-0.042,0.672-0.063,0.861H290.983z M296.4,97.586c0.021-1.176-0.483-3.002-2.562-3.002c-1.869,0-2.688,1.722-2.834,3.002
		H296.4z"/>
	<path d="M309.252,88.747v12.283c0,0.903,0.021,1.932,0.084,2.625h-1.659l-0.084-1.764h-0.042c-0.567,1.134-1.806,1.995-3.464,1.995
		c-2.457,0-4.346-2.079-4.346-5.165c-0.021-3.38,2.079-5.459,4.556-5.459c1.554,0,2.604,0.735,3.065,1.554h0.042v-6.068H309.252z
		 M307.404,97.628c0-0.231-0.021-0.546-0.084-0.777c-0.273-1.176-1.281-2.142-2.667-2.142c-1.911,0-3.044,1.68-3.044,3.926
		c0,2.058,1.008,3.758,3.002,3.758c1.239,0,2.373-0.819,2.708-2.205c0.063-0.252,0.084-0.504,0.084-0.798V97.628z"/>
</g>
<path fill="#FF931E" stroke="#000000" stroke-width="2" stroke-miterlimit="10" d="M516,114.667c0,6.119-3.539,11.333-8.624,11.333
	H377.707c-5.085,0-9.707-5.213-9.707-11.333V79.58c0-6.119,4.622-10.58,9.707-10.58h129.669c5.085,0,8.624,4.461,8.624,10.58
	V114.667z"/>
<g>
	<rect x="369.109" y="88.744" fill="none" width="148.965" height="23.256"/>
	<path d="M417.791,97.439c-0.105-1.974-0.23-4.346-0.21-6.11h-0.063c-0.482,1.659-1.07,3.422-1.784,5.375l-2.499,6.866h-1.386
		l-2.289-6.74c-0.672-1.995-1.239-3.821-1.638-5.501h-0.042c-0.042,1.764-0.147,4.136-0.273,6.257l-0.378,6.068h-1.743l0.987-14.151
		h2.331l2.415,6.845c0.588,1.743,1.071,3.296,1.428,4.766h0.063c0.357-1.428,0.861-2.981,1.491-4.766l2.52-6.845h2.33l0.882,14.151
		h-1.784L417.791,97.439z"/>
	<path d="M432.008,98.489c0,3.758-2.604,5.396-5.06,5.396c-2.751,0-4.871-2.016-4.871-5.228c0-3.401,2.226-5.396,5.039-5.396
		C430.035,93.261,432.008,95.381,432.008,98.489z M423.945,98.594c0,2.226,1.281,3.905,3.087,3.905c1.764,0,3.087-1.659,3.087-3.947
		c0-1.722-0.861-3.905-3.045-3.905S423.945,96.662,423.945,98.594z"/>
	<path d="M443.117,88.747v12.283c0,0.903,0.021,1.932,0.084,2.625h-1.658l-0.084-1.764h-0.043c-0.566,1.134-1.805,1.995-3.464,1.995
		c-2.456,0-4.347-2.079-4.347-5.165c-0.021-3.38,2.079-5.459,4.557-5.459c1.554,0,2.604,0.735,3.065,1.554h0.042v-6.068H443.117z
		 M441.27,97.628c0-0.231-0.021-0.546-0.084-0.777c-0.273-1.176-1.281-2.142-2.666-2.142c-1.911,0-3.045,1.68-3.045,3.926
		c0,2.058,1.008,3.758,3.002,3.758c1.239,0,2.373-0.819,2.709-2.205c0.062-0.252,0.084-0.504,0.084-0.798V97.628z"/>
	<path d="M448.242,90.636c0.021,0.63-0.441,1.134-1.176,1.134c-0.65,0-1.113-0.504-1.113-1.134c0-0.651,0.483-1.155,1.155-1.155
		C447.801,89.481,448.242,89.985,448.242,90.636z M446.185,103.654V93.492h1.848v10.162H446.185z"/>
	<path d="M451.287,103.654v-8.755h-1.428v-1.407h1.428v-0.546c0-2.688,1.575-4.43,4.431-4.43c0.944,0,2.058,0.294,2.583,0.672
		l-0.525,1.407c-0.441-0.315-1.238-0.588-2.142-0.588c-1.952,0-2.52,1.365-2.52,2.981v0.504h5.899v10.162h-1.826v-8.755h-4.073
		v8.755H451.287z"/>
	<path d="M463.11,98.909c0.042,2.499,1.638,3.527,3.485,3.527c1.322,0,2.121-0.231,2.813-0.525l0.315,1.323
		c-0.651,0.294-1.764,0.63-3.381,0.63c-3.129,0-4.997-2.058-4.997-5.123s1.806-5.48,4.767-5.48c3.316,0,4.199,2.918,4.199,4.787
		c0,0.378-0.043,0.672-0.063,0.861H463.11z M468.527,97.586c0.021-1.176-0.482-3.002-2.562-3.002c-1.868,0-2.688,1.722-2.835,3.002
		H468.527z"/>
	<path d="M481.379,88.747v12.283c0,0.903,0.021,1.932,0.084,2.625h-1.658l-0.084-1.764h-0.043c-0.566,1.134-1.805,1.995-3.464,1.995
		c-2.456,0-4.347-2.079-4.347-5.165c-0.021-3.38,2.079-5.459,4.557-5.459c1.554,0,2.604,0.735,3.065,1.554h0.042v-6.068H481.379z
		 M479.531,97.628c0-0.231-0.021-0.546-0.084-0.777c-0.273-1.176-1.281-2.142-2.666-2.142c-1.911,0-3.045,1.68-3.045,3.926
		c0,2.058,1.008,3.758,3.002,3.758c1.239,0,2.373-0.819,2.709-2.205c0.062-0.252,0.084-0.504,0.084-0.798V97.628z"/>
</g>
<g>
	<rect x="169.919" y="15.244" fill="none" width="173.081" height="49"/>
	<path d="M201.892,27.928c0.819,0.504,2.016,0.924,3.275,0.924c1.869,0,2.96-0.987,2.96-2.415c0-1.323-0.756-2.079-2.667-2.813
		c-2.31-0.819-3.737-2.016-3.737-4.01c0-2.205,1.827-3.842,4.577-3.842c1.449,0,2.499,0.336,3.128,0.693l-0.504,1.491
		c-0.462-0.252-1.407-0.672-2.688-0.672c-1.932,0-2.667,1.155-2.667,2.121c0,1.323,0.861,1.974,2.813,2.729
		c2.394,0.924,3.611,2.079,3.611,4.157c0,2.184-1.617,4.073-4.955,4.073c-1.365,0-2.855-0.399-3.611-0.903L201.892,27.928z"/>
	<path d="M214.596,17.073v2.918h2.646v1.407h-2.646v5.48c0,1.26,0.357,1.974,1.386,1.974c0.483,0,0.84-0.063,1.071-0.126
		l0.084,1.386c-0.357,0.147-0.924,0.252-1.638,0.252c-0.861,0-1.554-0.273-1.995-0.777c-0.525-0.546-0.714-1.449-0.714-2.646v-5.543
		h-1.575v-1.407h1.575v-2.436L214.596,17.073z"/>
	<path d="M224.948,30.154l-0.147-1.281h-0.063c-0.567,0.798-1.659,1.512-3.107,1.512c-2.058,0-3.107-1.449-3.107-2.918
		c0-2.457,2.184-3.8,6.11-3.779v-0.21c0-0.84-0.231-2.352-2.31-2.352c-0.945,0-1.932,0.294-2.646,0.756l-0.42-1.218
		c0.84-0.546,2.058-0.903,3.338-0.903c3.107,0,3.863,2.121,3.863,4.157v3.8c0,0.882,0.042,1.743,0.168,2.436H224.948z
		 M224.675,24.968c-2.016-0.042-4.304,0.315-4.304,2.289c0,1.197,0.798,1.764,1.743,1.764c1.323,0,2.163-0.84,2.457-1.701
		c0.063-0.189,0.105-0.399,0.105-0.588V24.968z"/>
	<path d="M238.199,19.992c-0.042,0.735-0.084,1.554-0.084,2.792v5.9c0,2.331-0.462,3.758-1.449,4.64
		c-0.987,0.924-2.415,1.218-3.695,1.218c-1.218,0-2.562-0.294-3.38-0.84l0.462-1.407c0.672,0.42,1.722,0.798,2.981,0.798
		c1.89,0,3.275-0.987,3.275-3.548v-1.134h-0.042c-0.567,0.945-1.659,1.701-3.233,1.701c-2.52,0-4.325-2.142-4.325-4.955
		c0-3.443,2.247-5.396,4.577-5.396c1.764,0,2.729,0.924,3.17,1.764h0.042l0.084-1.533H238.199z M236.288,24.002
		c0-0.315-0.021-0.588-0.105-0.84c-0.336-1.071-1.239-1.953-2.583-1.953c-1.764,0-3.023,1.491-3.023,3.842
		c0,1.995,1.008,3.653,3.002,3.653c1.134,0,2.163-0.714,2.562-1.89c0.105-0.315,0.147-0.672,0.147-0.987V24.002z"/>
	<path d="M243.114,17.136c0.021,0.63-0.441,1.134-1.176,1.134c-0.651,0-1.113-0.504-1.113-1.134c0-0.651,0.483-1.155,1.155-1.155
		C242.673,15.981,243.114,16.485,243.114,17.136z M241.056,30.154V19.992h1.848v10.162H241.056z"/>
	<path d="M245.97,22.742c0-1.05-0.021-1.911-0.084-2.75h1.638l0.105,1.68h0.042c0.504-0.966,1.68-1.911,3.359-1.911
		c1.407,0,3.59,0.84,3.59,4.325v6.068h-1.848v-5.858c0-1.638-0.609-3.002-2.352-3.002c-1.218,0-2.163,0.861-2.478,1.89
		c-0.084,0.231-0.126,0.546-0.126,0.861v6.11h-1.848V22.742z"/>
	<path d="M266.38,19.992c-0.042,0.735-0.084,1.554-0.084,2.792v5.9c0,2.331-0.462,3.758-1.449,4.64
		c-0.987,0.924-2.415,1.218-3.695,1.218c-1.218,0-2.562-0.294-3.38-0.84l0.462-1.407c0.672,0.42,1.722,0.798,2.981,0.798
		c1.89,0,3.275-0.987,3.275-3.548v-1.134h-0.042c-0.567,0.945-1.659,1.701-3.233,1.701c-2.52,0-4.325-2.142-4.325-4.955
		c0-3.443,2.247-5.396,4.577-5.396c1.764,0,2.729,0.924,3.17,1.764h0.042l0.084-1.533H266.38z M264.47,24.002
		c0-0.315-0.021-0.588-0.105-0.84c-0.336-1.071-1.239-1.953-2.583-1.953c-1.764,0-3.023,1.491-3.023,3.842
		c0,1.995,1.008,3.653,3.002,3.653c1.134,0,2.163-0.714,2.562-1.89c0.105-0.315,0.147-0.672,0.147-0.987V24.002z"/>
	<path d="M276.167,25.703l-1.47,4.451h-1.89l4.808-14.151h2.205l4.829,14.151h-1.953l-1.512-4.451H276.167z M280.807,24.275
		l-1.386-4.073c-0.315-0.924-0.525-1.764-0.735-2.583h-0.042c-0.21,0.84-0.441,1.701-0.714,2.562l-1.386,4.094H280.807z"/>
	<path d="M286.605,23.162c0-1.197-0.021-2.226-0.084-3.17h1.617l0.063,1.995h0.084c0.462-1.365,1.575-2.226,2.813-2.226
		c0.21,0,0.357,0.021,0.525,0.063v1.743c-0.189-0.042-0.378-0.063-0.63-0.063c-1.302,0-2.226,0.987-2.478,2.373
		c-0.042,0.252-0.084,0.546-0.084,0.861v5.417h-1.827V23.162z"/>
	<path d="M294.291,25.409c0.042,2.499,1.638,3.527,3.485,3.527c1.323,0,2.121-0.231,2.813-0.525l0.315,1.323
		c-0.651,0.294-1.764,0.63-3.38,0.63c-3.128,0-4.997-2.058-4.997-5.123s1.806-5.48,4.766-5.48c3.317,0,4.199,2.918,4.199,4.787
		c0,0.378-0.042,0.672-0.063,0.861H294.291z M299.708,24.086c0.021-1.176-0.483-3.002-2.562-3.002c-1.869,0-2.688,1.722-2.834,3.002
		H299.708z"/>
	<path d="M309.41,30.154l-0.147-1.281H309.2c-0.567,0.798-1.659,1.512-3.107,1.512c-2.058,0-3.107-1.449-3.107-2.918
		c0-2.457,2.184-3.8,6.11-3.779v-0.21c0-0.84-0.231-2.352-2.31-2.352c-0.945,0-1.932,0.294-2.646,0.756l-0.42-1.218
		c0.84-0.546,2.058-0.903,3.338-0.903c3.107,0,3.863,2.121,3.863,4.157v3.8c0,0.882,0.042,1.743,0.168,2.436H309.41z
		 M309.137,24.968c-2.016-0.042-4.304,0.315-4.304,2.289c0,1.197,0.798,1.764,1.743,1.764c1.323,0,2.163-0.84,2.457-1.701
		c0.063-0.189,0.105-0.399,0.105-0.588V24.968z"/>
	<path d="M226.292,40.783c-1.533,2.058-2.646,4.787-2.646,8.587c0,3.737,1.155,6.425,2.646,8.524h-1.449
		c-1.323-1.743-2.75-4.43-2.75-8.524c0.021-4.136,1.428-6.824,2.75-8.587H226.292z"/>
	<path d="M227.994,53.464c0.546,0.357,1.512,0.735,2.436,0.735c1.344,0,1.974-0.672,1.974-1.512c0-0.882-0.525-1.365-1.89-1.869
		c-1.827-0.651-2.688-1.659-2.688-2.876c0-1.638,1.323-2.981,3.506-2.981c1.029,0,1.932,0.294,2.499,0.63l-0.462,1.344
		c-0.399-0.252-1.134-0.588-2.079-0.588c-1.092,0-1.701,0.63-1.701,1.386c0,0.84,0.609,1.218,1.932,1.722
		c1.764,0.672,2.667,1.554,2.667,3.065c0,1.785-1.386,3.044-3.8,3.044c-1.113,0-2.142-0.273-2.855-0.693L227.994,53.464z"/>
	<path d="M238.788,42.273v2.918h2.646v1.407h-2.646v5.48c0,1.26,0.357,1.974,1.386,1.974c0.483,0,0.84-0.063,1.071-0.126
		l0.084,1.386c-0.357,0.147-0.924,0.252-1.638,0.252c-0.861,0-1.554-0.273-1.995-0.777c-0.525-0.546-0.714-1.449-0.714-2.646v-5.543
		h-1.575v-1.407h1.575v-2.436L238.788,42.273z"/>
	<path d="M249.14,55.354l-0.147-1.281h-0.063c-0.567,0.798-1.659,1.512-3.107,1.512c-2.058,0-3.107-1.449-3.107-2.918
		c0-2.457,2.184-3.8,6.11-3.779v-0.21c0-0.84-0.231-2.352-2.31-2.352c-0.945,0-1.932,0.294-2.646,0.756l-0.42-1.218
		c0.84-0.546,2.058-0.903,3.338-0.903c3.107,0,3.863,2.121,3.863,4.157v3.8c0,0.882,0.042,1.743,0.168,2.436H249.14z
		 M248.867,50.168c-2.016-0.042-4.304,0.315-4.304,2.289c0,1.197,0.798,1.764,1.743,1.764c1.323,0,2.163-0.84,2.457-1.701
		c0.063-0.189,0.105-0.399,0.105-0.588V50.168z"/>
	<path d="M262.39,45.192c-0.042,0.735-0.084,1.554-0.084,2.792v5.9c0,2.331-0.462,3.758-1.449,4.64
		c-0.987,0.924-2.415,1.218-3.695,1.218c-1.218,0-2.562-0.294-3.38-0.84l0.462-1.407c0.672,0.42,1.722,0.798,2.981,0.798
		c1.89,0,3.275-0.987,3.275-3.548v-1.134h-0.042c-0.567,0.945-1.659,1.701-3.233,1.701c-2.52,0-4.325-2.142-4.325-4.955
		c0-3.443,2.247-5.396,4.577-5.396c1.764,0,2.729,0.924,3.17,1.764h0.042l0.084-1.533H262.39z M260.479,49.202
		c0-0.315-0.021-0.588-0.105-0.84c-0.336-1.071-1.239-1.953-2.583-1.953c-1.764,0-3.023,1.491-3.023,3.842
		c0,1.995,1.008,3.653,3.002,3.653c1.134,0,2.163-0.714,2.562-1.89c0.105-0.315,0.147-0.672,0.147-0.987V49.202z"/>
	<path d="M266.402,50.609c0.042,2.499,1.638,3.527,3.485,3.527c1.323,0,2.121-0.231,2.813-0.525l0.315,1.323
		c-0.651,0.294-1.764,0.63-3.38,0.63c-3.128,0-4.997-2.058-4.997-5.123s1.806-5.48,4.766-5.48c3.317,0,4.199,2.918,4.199,4.787
		c0,0.378-0.042,0.672-0.063,0.861H266.402z M271.819,49.286c0.021-1.176-0.483-3.002-2.562-3.002c-1.869,0-2.688,1.722-2.834,3.002
		H271.819z"/>
	<path d="M284.671,40.447v12.283c0,0.903,0.021,1.932,0.084,2.625h-1.659l-0.084-1.764h-0.042c-0.567,1.134-1.806,1.995-3.464,1.995
		c-2.457,0-4.346-2.079-4.346-5.165c-0.021-3.38,2.079-5.459,4.556-5.459c1.554,0,2.604,0.735,3.065,1.554h0.042v-6.068H284.671z
		 M282.823,49.328c0-0.231-0.021-0.546-0.084-0.777c-0.273-1.176-1.281-2.142-2.667-2.142c-1.911,0-3.044,1.68-3.044,3.926
		c0,2.058,1.008,3.758,3.002,3.758c1.239,0,2.373-0.819,2.708-2.205c0.063-0.252,0.084-0.504,0.084-0.798V49.328z"/>
	<path d="M286.625,57.895c1.491-2.079,2.646-4.808,2.646-8.587c0-3.758-1.134-6.446-2.646-8.524h1.428
		c1.344,1.722,2.75,4.409,2.75,8.545c0,4.115-1.407,6.782-2.75,8.566H286.625z"/>
</g>
<line fill="none" stroke="#000000" stroke-width="3" stroke-miterlimit="10" x1="72.5" y1="126" x2="72.5" y2="475"/>
<line fill="none" stroke="#000000" stroke-width="3" stroke-miterlimit="10" x1="256.5" y1="126" x2="256.5" y2="475"/>
<line fill="none" stroke="#000000" stroke-width="3" stroke-miterlimit="10" x1="441.5" y1="127" x2="441.5" y2="476"/>
<g>
	<g>
		<line fill="none" stroke="#000000" stroke-width="3" stroke-miterlimit="10" x1="85" y1="214.5" x2="226" y2="214.5"/>
		<g>
			<path d="M244,214.5c-8.52,3.161-19.09,8.555-25.642,14.268l5.161-14.268l-5.161-14.265C224.91,205.948,235.48,211.342,244,214.5z
				"/>
		</g>
	</g>
</g>
<g>
	<g>
		<line fill="none" stroke="#000000" stroke-width="3" stroke-miterlimit="10" x1="244" y1="326.5" x2="103" y2="326.5"/>
		<g>
			<path d="M85,326.5c8.52-3.161,19.09-8.555,25.642-14.268l-5.161,14.268l5.161,14.265C104.09,335.052,93.52,329.658,85,326.5z"/>
		</g>
	</g>
</g>
<g>
	<g>
		<line fill="none" stroke="#000000" stroke-width="3" stroke-miterlimit="10" x1="272" y1="166.5" x2="413" y2="166.5"/>
		<g>
			<path d="M431,166.5c-8.52,3.161-19.09,8.555-25.642,14.268l5.161-14.268l-5.161-14.265C411.91,157.948,422.48,163.342,431,166.5z
				"/>
		</g>
	</g>
</g>
<g>
	<rect x="89.998" y="191" fill="none" width="73.4" height="30"/>
	<path d="M116.953,205.91l-0.147-1.281h-0.063c-0.567,0.798-1.659,1.512-3.107,1.512c-2.058,0-3.107-1.449-3.107-2.918
		c0-2.457,2.184-3.8,6.11-3.779v-0.21c0-0.84-0.231-2.352-2.31-2.352c-0.945,0-1.932,0.294-2.646,0.756l-0.42-1.218
		c0.84-0.546,2.058-0.903,3.338-0.903c3.107,0,3.863,2.121,3.863,4.157v3.8c0,0.882,0.042,1.743,0.168,2.436H116.953z
		 M116.68,200.724c-2.016-0.042-4.304,0.315-4.304,2.289c0,1.197,0.798,1.764,1.743,1.764c1.323,0,2.163-0.84,2.457-1.701
		c0.063-0.189,0.105-0.399,0.105-0.588V200.724z"/>
	<path d="M130.224,191.002v12.283c0,0.903,0.021,1.932,0.084,2.625h-1.659l-0.084-1.764h-0.042
		c-0.567,1.134-1.806,1.995-3.464,1.995c-2.457,0-4.346-2.079-4.346-5.165c-0.021-3.38,2.079-5.459,4.556-5.459
		c1.554,0,2.604,0.735,3.065,1.554h0.042v-6.068H130.224z M128.376,199.884c0-0.231-0.021-0.546-0.084-0.777
		c-0.273-1.176-1.281-2.142-2.667-2.142c-1.911,0-3.044,1.68-3.044,3.926c0,2.058,1.008,3.758,3.002,3.758
		c1.239,0,2.373-0.819,2.708-2.205c0.063-0.252,0.084-0.504,0.084-0.798V199.884z"/>
	<path d="M142.068,191.002v12.283c0,0.903,0.021,1.932,0.084,2.625h-1.659l-0.084-1.764h-0.042
		c-0.567,1.134-1.806,1.995-3.464,1.995c-2.457,0-4.346-2.079-4.346-5.165c-0.021-3.38,2.079-5.459,4.556-5.459
		c1.554,0,2.604,0.735,3.065,1.554h0.042v-6.068H142.068z M140.22,199.884c0-0.231-0.021-0.546-0.084-0.777
		c-0.273-1.176-1.281-2.142-2.667-2.142c-1.911,0-3.044,1.68-3.044,3.926c0,2.058,1.008,3.758,3.002,3.758
		c1.239,0,2.373-0.819,2.708-2.205c0.063-0.252,0.084-0.504,0.084-0.798V199.884z"/>
</g>
<g>
	<rect x="164.5" y="301.5" fill="none" width="93" height="30"/>
	<path d="M179.29,309.418c0-1.197-0.021-2.226-0.084-3.17h1.617l0.063,1.995h0.084c0.462-1.365,1.575-2.226,2.813-2.226
		c0.21,0,0.357,0.021,0.525,0.063v1.743c-0.189-0.042-0.378-0.063-0.63-0.063c-1.302,0-2.226,0.987-2.478,2.373
		c-0.042,0.252-0.084,0.546-0.084,0.861v5.417h-1.827V309.418z"/>
	<path d="M186.976,311.664c0.042,2.499,1.638,3.527,3.485,3.527c1.323,0,2.121-0.23,2.813-0.524l0.315,1.323
		c-0.651,0.293-1.764,0.629-3.38,0.629c-3.128,0-4.997-2.057-4.997-5.123c0-3.065,1.806-5.479,4.766-5.479
		c3.317,0,4.199,2.918,4.199,4.787c0,0.378-0.042,0.672-0.063,0.86H186.976z M192.393,310.342c0.021-1.176-0.483-3.002-2.562-3.002
		c-1.869,0-2.688,1.722-2.834,3.002H192.393z"/>
	<path d="M196.468,308.998c0-1.05-0.021-1.911-0.084-2.75H198l0.084,1.638h0.063c0.567-0.966,1.512-1.869,3.191-1.869
		c1.386,0,2.436,0.84,2.876,2.037h0.042c0.315-0.567,0.714-1.008,1.134-1.323c0.609-0.462,1.281-0.714,2.247-0.714
		c1.344,0,3.338,0.882,3.338,4.409v5.984h-1.806v-5.753c0-1.953-0.714-3.128-2.205-3.128c-1.05,0-1.869,0.777-2.184,1.68
		c-0.084,0.252-0.147,0.588-0.147,0.924v6.278h-1.806v-6.089c0-1.617-0.714-2.792-2.121-2.792c-1.155,0-1.995,0.924-2.289,1.848
		c-0.105,0.273-0.147,0.588-0.147,0.903v6.131h-1.806V308.998z"/>
	<path d="M223.178,311.244c0,3.759-2.604,5.396-5.06,5.396c-2.75,0-4.871-2.016-4.871-5.229c0-3.401,2.226-5.396,5.039-5.396
		C221.205,306.017,223.178,308.137,223.178,311.244z M215.116,311.35c0,2.226,1.281,3.905,3.086,3.905
		c1.764,0,3.086-1.659,3.086-3.947c0-1.722-0.861-3.905-3.044-3.905S215.116,309.418,215.116,311.35z"/>
	<path d="M226.078,306.248l1.995,5.711c0.336,0.924,0.609,1.764,0.819,2.604h0.063c0.231-0.84,0.525-1.68,0.861-2.604l1.974-5.711
		h1.932l-3.989,10.163h-1.764l-3.863-10.163H226.078z"/>
	<path d="M236.284,311.664c0.042,2.499,1.638,3.527,3.485,3.527c1.323,0,2.121-0.23,2.813-0.524l0.315,1.323
		c-0.651,0.293-1.764,0.629-3.38,0.629c-3.128,0-4.997-2.057-4.997-5.123c0-3.065,1.806-5.479,4.766-5.479
		c3.317,0,4.199,2.918,4.199,4.787c0,0.378-0.042,0.672-0.063,0.86H236.284z M241.701,310.342c0.021-1.176-0.483-3.002-2.562-3.002
		c-1.869,0-2.688,1.722-2.834,3.002H241.701z"/>
</g>
<g>
	<rect x="270.999" y="142" fill="none" width="64.001" height="30"/>
	<path d="M288.446,152.165c0.042,2.499,1.638,3.527,3.485,3.527c1.323,0,2.121-0.231,2.813-0.525l0.315,1.323
		c-0.651,0.294-1.764,0.63-3.38,0.63c-3.128,0-4.997-2.058-4.997-5.123s1.806-5.48,4.766-5.48c3.317,0,4.199,2.918,4.199,4.787
		c0,0.378-0.042,0.672-0.063,0.861H288.446z M293.863,150.842c0.021-1.176-0.483-3.002-2.562-3.002
		c-1.869,0-2.688,1.722-2.834,3.002H293.863z"/>
	<path d="M306.715,142.002v12.283c0,0.903,0.021,1.932,0.084,2.625h-1.659l-0.084-1.764h-0.042
		c-0.567,1.134-1.806,1.995-3.464,1.995c-2.457,0-4.346-2.079-4.346-5.165c-0.021-3.38,2.079-5.459,4.556-5.459
		c1.554,0,2.604,0.735,3.065,1.554h0.042v-6.068H306.715z M304.867,150.884c0-0.231-0.021-0.546-0.084-0.777
		c-0.273-1.176-1.281-2.142-2.667-2.142c-1.911,0-3.044,1.68-3.044,3.926c0,2.058,1.008,3.758,3.002,3.758
		c1.239,0,2.373-0.819,2.708-2.205c0.063-0.252,0.084-0.504,0.084-0.798V150.884z"/>
	<path d="M311.84,143.892c0.021,0.63-0.441,1.134-1.176,1.134c-0.651,0-1.113-0.504-1.113-1.134c0-0.651,0.483-1.155,1.155-1.155
		C311.399,142.737,311.84,143.241,311.84,143.892z M309.782,156.91v-10.162h1.848v10.162H309.782z"/>
	<path d="M316.922,143.829v2.918h2.646v1.407h-2.646v5.48c0,1.26,0.357,1.974,1.386,1.974c0.483,0,0.84-0.063,1.071-0.126
		l0.084,1.386c-0.357,0.147-0.924,0.252-1.638,0.252c-0.861,0-1.554-0.273-1.995-0.777c-0.525-0.546-0.714-1.449-0.714-2.646v-5.543
		h-1.575v-1.407h1.575v-2.436L316.922,143.829z"/>
</g>
<g>
	<rect x="454.5" y="282.644" fill="none" width="113" height="30"/>
	<path d="M485.924,297.175c-0.482,0.252-1.553,0.588-2.918,0.588c-3.065,0-5.061-2.079-5.061-5.186c0-3.128,2.143-5.396,5.459-5.396
		c1.092,0,2.059,0.273,2.562,0.525l-0.42,1.428c-0.441-0.252-1.135-0.483-2.143-0.483c-2.33,0-3.59,1.722-3.59,3.842
		c0,2.352,1.512,3.8,3.527,3.8c1.05,0,1.742-0.273,2.268-0.504L485.924,297.175z"/>
	<path d="M497.158,292.388c0,3.758-2.604,5.396-5.06,5.396c-2.751,0-4.871-2.016-4.871-5.228c0-3.401,2.226-5.396,5.039-5.396
		C495.186,287.16,497.158,289.281,497.158,292.388z M489.096,292.493c0,2.226,1.281,3.905,3.087,3.905
		c1.764,0,3.087-1.659,3.087-3.947c0-1.722-0.861-3.905-3.045-3.905S489.096,290.562,489.096,292.493z"/>
	<path d="M499.491,290.142c0-1.05-0.021-1.911-0.084-2.75h1.616l0.084,1.638h0.063c0.567-0.966,1.512-1.869,3.191-1.869
		c1.386,0,2.436,0.84,2.876,2.037h0.043c0.314-0.567,0.713-1.008,1.133-1.323c0.609-0.462,1.281-0.714,2.247-0.714
		c1.344,0,3.339,0.882,3.339,4.409v5.984h-1.807V291.8c0-1.953-0.713-3.128-2.204-3.128c-1.05,0-1.868,0.777-2.184,1.68
		c-0.084,0.252-0.147,0.588-0.147,0.924v6.278h-1.805v-6.089c0-1.617-0.715-2.792-2.121-2.792c-1.154,0-1.994,0.924-2.289,1.848
		c-0.104,0.273-0.146,0.588-0.146,0.903v6.131h-1.806V290.142z"/>
	<path d="M517.006,290.142c0-1.05-0.021-1.911-0.084-2.75h1.616l0.084,1.638h0.063c0.566-0.966,1.512-1.869,3.191-1.869
		c1.385,0,2.436,0.84,2.876,2.037h0.042c0.314-0.567,0.714-1.008,1.134-1.323c0.608-0.462,1.28-0.714,2.247-0.714
		c1.344,0,3.338,0.882,3.338,4.409v5.984h-1.806V291.8c0-1.953-0.714-3.128-2.204-3.128c-1.051,0-1.869,0.777-2.184,1.68
		c-0.084,0.252-0.147,0.588-0.147,0.924v6.278h-1.806v-6.089c0-1.617-0.714-2.792-2.121-2.792c-1.154,0-1.994,0.924-2.288,1.848
		c-0.104,0.273-0.147,0.588-0.147,0.903v6.131h-1.805V290.142z"/>
	<path d="M536.577,284.536c0.021,0.63-0.44,1.134-1.176,1.134c-0.651,0-1.112-0.504-1.112-1.134c0-0.651,0.482-1.155,1.154-1.155
		C536.137,283.381,536.577,283.885,536.577,284.536z M534.52,297.553v-10.162h1.848v10.162H534.52z"/>
	<path d="M541.659,284.473v2.918h2.646v1.407h-2.646v5.48c0,1.26,0.356,1.974,1.386,1.974c0.482,0,0.84-0.063,1.07-0.126
		l0.084,1.386c-0.356,0.147-0.924,0.252-1.637,0.252c-0.861,0-1.555-0.273-1.995-0.777c-0.524-0.546-0.714-1.449-0.714-2.646v-5.543
		h-1.574v-1.407h1.574v-2.436L541.659,284.473z"/>
</g>
<g>
	<g>
		<path fill="none" stroke="#000000" stroke-width="3" stroke-miterlimit="10" d="M256.5,243c0,35.495,133.606,64.45,302.224,66.396
			"/>
		<g>
			<path d="M576.829,309.5c-8.552,3.072-19.179,8.354-25.79,13.998l5.31-14.212l-5.011-14.318
				C557.83,300.749,568.343,306.253,576.829,309.5z"/>
		</g>
	</g>
</g>
<g>
	<rect x="549.133" y="190.609" fill="none" width="148.965" height="45.142"/>
	<path d="M553.045,191.368h1.827v12.619h6.047v1.533h-7.874V191.368z"/>
	<path d="M571.797,200.354c0,3.758-2.604,5.396-5.061,5.396c-2.75,0-4.871-2.016-4.871-5.228c0-3.401,2.226-5.396,5.039-5.396
		C569.822,195.126,571.797,197.247,571.797,200.354z M563.734,200.459c0,2.226,1.28,3.905,3.086,3.905
		c1.764,0,3.086-1.659,3.086-3.947c0-1.722-0.86-3.905-3.044-3.905S563.734,198.527,563.734,200.459z"/>
	<path d="M581.373,205.141c-0.483,0.252-1.555,0.588-2.919,0.588c-3.065,0-5.06-2.079-5.06-5.186c0-3.128,2.141-5.396,5.459-5.396
		c1.092,0,2.057,0.273,2.561,0.525l-0.42,1.428c-0.44-0.252-1.133-0.483-2.141-0.483c-2.331,0-3.591,1.722-3.591,3.842
		c0,2.352,1.512,3.8,3.527,3.8c1.05,0,1.743-0.273,2.268-0.504L581.373,205.141z"/>
	<path d="M589.164,205.519l-0.146-1.281h-0.063c-0.567,0.798-1.659,1.512-3.107,1.512c-2.058,0-3.107-1.449-3.107-2.918
		c0-2.457,2.184-3.8,6.11-3.779v-0.21c0-0.84-0.231-2.352-2.311-2.352c-0.944,0-1.932,0.294-2.645,0.756l-0.42-1.218
		c0.84-0.546,2.057-0.903,3.338-0.903c3.107,0,3.863,2.121,3.863,4.157v3.8c0,0.882,0.042,1.743,0.168,2.436H589.164z
		 M588.891,200.333c-2.016-0.042-4.304,0.315-4.304,2.289c0,1.197,0.798,1.764,1.743,1.764c1.322,0,2.162-0.84,2.456-1.701
		c0.063-0.189,0.104-0.399,0.104-0.588V200.333z"/>
	<path d="M593.659,190.612h1.848v14.907h-1.848V190.612z"/>
	<path d="M603.13,191.557c0.924-0.189,2.247-0.294,3.507-0.294c1.952,0,3.212,0.357,4.094,1.155c0.714,0.63,1.113,1.596,1.113,2.688
		c0,1.869-1.176,3.107-2.667,3.611v0.063c1.092,0.378,1.743,1.386,2.079,2.855c0.461,1.974,0.797,3.338,1.092,3.884h-1.891
		c-0.23-0.399-0.545-1.617-0.944-3.38c-0.42-1.953-1.176-2.688-2.835-2.75h-1.721v6.131h-1.827V191.557z M604.957,198.002h1.868
		c1.952,0,3.191-1.071,3.191-2.688c0-1.827-1.323-2.625-3.255-2.646c-0.881,0-1.512,0.084-1.805,0.168V198.002z"/>
	<path d="M615.478,200.774c0.042,2.499,1.638,3.527,3.485,3.527c1.322,0,2.121-0.231,2.813-0.525l0.315,1.323
		c-0.651,0.294-1.764,0.63-3.381,0.63c-3.129,0-4.997-2.058-4.997-5.123s1.806-5.48,4.767-5.48c3.316,0,4.199,2.918,4.199,4.787
		c0,0.378-0.043,0.672-0.063,0.861H615.478z M620.895,199.451c0.021-1.176-0.482-3.002-2.562-3.002
		c-1.868,0-2.688,1.722-2.835,3.002H620.895z"/>
	<path d="M624.97,198.674c0-1.302-0.042-2.352-0.084-3.317h1.659l0.084,1.743h0.041c0.756-1.239,1.953-1.974,3.611-1.974
		c2.457,0,4.305,2.079,4.305,5.165c0,3.653-2.226,5.459-4.619,5.459c-1.344,0-2.52-0.588-3.129-1.596h-0.041v5.522h-1.827V198.674z
		 M626.797,201.383c0,0.273,0.041,0.525,0.084,0.756c0.336,1.281,1.448,2.163,2.771,2.163c1.952,0,3.086-1.596,3.086-3.926
		c0-2.037-1.07-3.779-3.023-3.779c-1.26,0-2.436,0.903-2.793,2.289c-0.062,0.231-0.125,0.504-0.125,0.756V201.383z"/>
	<path d="M646.115,200.354c0,3.758-2.604,5.396-5.061,5.396c-2.75,0-4.871-2.016-4.871-5.228c0-3.401,2.226-5.396,5.039-5.396
		C644.141,195.126,646.115,197.247,646.115,200.354z M638.053,200.459c0,2.226,1.28,3.905,3.086,3.905
		c1.764,0,3.086-1.659,3.086-3.947c0-1.722-0.86-3.905-3.044-3.905S638.053,198.527,638.053,200.459z"/>
	<path d="M648.195,203.629c0.546,0.357,1.512,0.735,2.436,0.735c1.344,0,1.974-0.672,1.974-1.512c0-0.882-0.524-1.365-1.89-1.869
		c-1.826-0.651-2.688-1.659-2.688-2.876c0-1.638,1.322-2.981,3.506-2.981c1.029,0,1.932,0.294,2.499,0.63l-0.462,1.344
		c-0.398-0.252-1.134-0.588-2.078-0.588c-1.092,0-1.701,0.63-1.701,1.386c0,0.84,0.609,1.218,1.932,1.722
		c1.764,0.672,2.666,1.554,2.666,3.065c0,1.785-1.385,3.044-3.8,3.044c-1.112,0-2.142-0.273-2.855-0.693L648.195,203.629z"/>
	<path d="M658.82,192.501c0.021,0.63-0.44,1.134-1.176,1.134c-0.65,0-1.112-0.504-1.112-1.134c0-0.651,0.483-1.155,1.155-1.155
		C658.38,191.347,658.82,191.851,658.82,192.501z M656.764,205.519v-10.162h1.848v10.162H656.764z"/>
	<path d="M663.902,192.438v2.918h2.646v1.407h-2.646v5.48c0,1.26,0.357,1.974,1.387,1.974c0.482,0,0.84-0.063,1.07-0.126
		l0.084,1.386c-0.357,0.147-0.924,0.252-1.638,0.252c-0.86,0-1.554-0.273-1.995-0.777c-0.524-0.546-0.713-1.449-0.713-2.646v-5.543
		h-1.575v-1.407h1.575v-2.436L663.902,192.438z"/>
	<path d="M677.698,200.354c0,3.758-2.604,5.396-5.06,5.396c-2.751,0-4.871-2.016-4.871-5.228c0-3.401,2.225-5.396,5.039-5.396
		C675.725,195.126,677.698,197.247,677.698,200.354z M669.636,200.459c0,2.226,1.28,3.905,3.087,3.905
		c1.764,0,3.086-1.659,3.086-3.947c0-1.722-0.861-3.905-3.045-3.905S669.636,198.527,669.636,200.459z"/>
	<path d="M680.031,198.527c0-1.197-0.021-2.226-0.084-3.17h1.616l0.063,1.995h0.084c0.461-1.365,1.574-2.226,2.812-2.226
		c0.211,0,0.357,0.021,0.525,0.063v1.743c-0.189-0.042-0.378-0.063-0.63-0.063c-1.302,0-2.226,0.987-2.478,2.373
		c-0.042,0.252-0.084,0.546-0.084,0.861v5.417h-1.826V198.527z"/>
	<path d="M688.094,195.357l2.227,6.005c0.23,0.672,0.482,1.47,0.65,2.079h0.042c0.188-0.609,0.399-1.386,0.651-2.121l2.016-5.963
		h1.952l-2.771,7.244c-1.323,3.485-2.226,5.27-3.485,6.362c-0.902,0.798-1.806,1.113-2.268,1.197l-0.462-1.554
		c0.462-0.147,1.071-0.441,1.616-0.903c0.504-0.399,1.135-1.113,1.555-2.058c0.084-0.189,0.146-0.336,0.146-0.441
		s-0.042-0.252-0.126-0.483l-3.759-9.364H688.094z"/>
	<path d="M574.748,216.148c-1.533,2.058-2.646,4.787-2.646,8.587c0,3.737,1.155,6.425,2.646,8.524h-1.449
		c-1.322-1.743-2.75-4.43-2.75-8.524c0.021-4.136,1.428-6.824,2.75-8.587H574.748z"/>
	<path d="M583.945,230.341c-0.483,0.252-1.555,0.588-2.919,0.588c-3.065,0-5.06-2.079-5.06-5.186c0-3.128,2.141-5.396,5.459-5.396
		c1.092,0,2.057,0.273,2.561,0.525l-0.42,1.428c-0.44-0.252-1.133-0.483-2.141-0.483c-2.331,0-3.591,1.722-3.591,3.842
		c0,2.352,1.512,3.8,3.527,3.8c1.05,0,1.743-0.273,2.268-0.504L583.945,230.341z"/>
	<path d="M595.18,225.554c0,3.758-2.604,5.396-5.061,5.396c-2.75,0-4.871-2.016-4.871-5.228c0-3.401,2.227-5.396,5.039-5.396
		C593.206,220.326,595.18,222.447,595.18,225.554z M587.117,225.659c0,2.226,1.281,3.905,3.086,3.905
		c1.764,0,3.087-1.659,3.087-3.947c0-1.722-0.86-3.905-3.044-3.905S587.117,223.728,587.117,225.659z"/>
	<path d="M597.512,223.308c0-1.05-0.021-1.911-0.084-2.75h1.617l0.084,1.638h0.062c0.567-0.966,1.512-1.869,3.191-1.869
		c1.387,0,2.436,0.84,2.877,2.037h0.042c0.315-0.567,0.714-1.008,1.134-1.323c0.609-0.462,1.281-0.714,2.246-0.714
		c1.344,0,3.339,0.882,3.339,4.409v5.984h-1.806v-5.753c0-1.953-0.714-3.128-2.205-3.128c-1.049,0-1.868,0.777-2.184,1.68
		c-0.084,0.252-0.146,0.588-0.146,0.924v6.278h-1.806v-6.089c0-1.617-0.714-2.792-2.12-2.792c-1.155,0-1.995,0.924-2.289,1.848
		c-0.105,0.273-0.146,0.588-0.146,0.903v6.131h-1.807V223.308z"/>
	<path d="M615.026,223.308c0-1.05-0.021-1.911-0.084-2.75h1.616l0.084,1.638h0.063c0.567-0.966,1.512-1.869,3.191-1.869
		c1.386,0,2.436,0.84,2.876,2.037h0.043c0.314-0.567,0.713-1.008,1.133-1.323c0.609-0.462,1.281-0.714,2.247-0.714
		c1.344,0,3.339,0.882,3.339,4.409v5.984h-1.807v-5.753c0-1.953-0.713-3.128-2.204-3.128c-1.05,0-1.868,0.777-2.184,1.68
		c-0.084,0.252-0.147,0.588-0.147,0.924v6.278h-1.805v-6.089c0-1.617-0.715-2.792-2.121-2.792c-1.154,0-1.994,0.924-2.289,1.848
		c-0.104,0.273-0.146,0.588-0.146,0.903v6.131h-1.806V223.308z"/>
	<path d="M634.598,217.702c0.021,0.63-0.44,1.134-1.176,1.134c-0.65,0-1.112-0.504-1.112-1.134c0-0.651,0.483-1.155,1.155-1.155
		C634.157,216.547,634.598,217.051,634.598,217.702z M632.541,230.719v-10.162h1.848v10.162H632.541z"/>
	<path d="M639.68,217.639v2.918h2.646v1.407h-2.646v5.48c0,1.26,0.357,1.974,1.387,1.974c0.482,0,0.84-0.063,1.07-0.126l0.084,1.386
		c-0.357,0.147-0.924,0.252-1.638,0.252c-0.86,0-1.554-0.273-1.995-0.777c-0.524-0.546-0.713-1.449-0.713-2.646v-5.543H636.3v-1.407
		h1.575v-2.436L639.68,217.639z"/>
	<path d="M646.631,217.639v2.918h2.646v1.407h-2.646v5.48c0,1.26,0.357,1.974,1.386,1.974c0.483,0,0.84-0.063,1.071-0.126
		l0.084,1.386c-0.357,0.147-0.924,0.252-1.639,0.252c-0.86,0-1.553-0.273-1.994-0.777c-0.525-0.546-0.714-1.449-0.714-2.646v-5.543
		h-1.575v-1.407h1.575v-2.436L646.631,217.639z"/>
	<path d="M652.259,225.974c0.042,2.499,1.638,3.527,3.485,3.527c1.322,0,2.121-0.231,2.813-0.525l0.315,1.323
		c-0.651,0.294-1.764,0.63-3.381,0.63c-3.129,0-4.997-2.058-4.997-5.123s1.806-5.48,4.767-5.48c3.316,0,4.199,2.918,4.199,4.787
		c0,0.378-0.043,0.672-0.063,0.861H652.259z M657.676,224.651c0.021-1.176-0.482-3.002-2.562-3.002
		c-1.868,0-2.688,1.722-2.835,3.002H657.676z"/>
	<path d="M670.527,215.812v12.283c0,0.903,0.021,1.932,0.084,2.625h-1.658l-0.084-1.764h-0.043
		c-0.566,1.134-1.805,1.995-3.464,1.995c-2.456,0-4.347-2.079-4.347-5.165c-0.021-3.38,2.079-5.459,4.557-5.459
		c1.554,0,2.604,0.735,3.065,1.554h0.042v-6.068H670.527z M668.68,224.693c0-0.231-0.021-0.546-0.084-0.777
		c-0.273-1.176-1.281-2.142-2.666-2.142c-1.911,0-3.045,1.68-3.045,3.926c0,2.058,1.008,3.758,3.002,3.758
		c1.239,0,2.373-0.819,2.709-2.205c0.062-0.252,0.084-0.504,0.084-0.798V224.693z"/>
	<path d="M672.482,233.26c1.49-2.079,2.645-4.808,2.645-8.587c0-3.758-1.133-6.446-2.645-8.524h1.428
		c1.344,1.722,2.75,4.409,2.75,8.545c0,4.115-1.406,6.782-2.75,8.566H672.482z"/>
</g>
<g opacity="0.8">
	
		<ellipse fill="#3FA9F5" stroke="#000000" stroke-width="2" stroke-miterlimit="10" cx="624.876" cy="327.388" rx="42.622" ry="17.192"/>
	<rect x="581" y="259" fill="#3FA9F5" width="86" height="68"/>
	
		<ellipse fill="#3FA9F5" stroke="#000000" stroke-width="2" stroke-miterlimit="10" cx="624.876" cy="259.459" rx="42.622" ry="17.194"/>
	<line fill="#3FA9F5" stroke="#000000" stroke-width="2" stroke-miterlimit="10" x1="582" y1="259" x2="582" y2="327"/>
	<line fill="#3FA9F5" stroke="#000000" stroke-width="2" stroke-miterlimit="10" x1="667" y1="258" x2="667" y2="330"/>
	<path fill="#3FA9F5" stroke="#000000" stroke-width="2" stroke-miterlimit="10" d="M582.584,285.76
		c18.322,18.321,65.155,18.598,83.957-0.205"/>
	<path fill="#3FA9F5" stroke="#000000" stroke-width="2" stroke-miterlimit="10" d="M582.584,307.836
		c18.322,18.32,65.155,18.598,83.957-0.204"/>
</g>
<g>
	<g>
		<path fill="none" stroke="#000000" stroke-width="3" stroke-miterlimit="10" d="M623.615,353
			c0,29.991-148.485,54.438-335.51,55.928"/>
		<g>
			<path d="M269.999,409c8.494-3.229,19.021-8.707,25.527-14.472l-5.046,14.309l5.274,14.223
				C289.157,417.399,278.543,412.09,269.999,409z"/>
		</g>
	</g>
</g>
<g>
	<rect x="84.074" y="220.628" fill="none" width="86.399" height="30"/>
	<path d="M94.198,220.966c-1.533,2.058-2.646,4.787-2.646,8.587c0,3.737,1.155,6.425,2.646,8.524h-1.449
		c-1.323-1.743-2.75-4.43-2.75-8.524c0.021-4.136,1.428-6.824,2.75-8.587H94.198z"/>
	<path d="M95.899,233.648c0.546,0.357,1.512,0.735,2.436,0.735c1.344,0,1.974-0.672,1.974-1.512c0-0.882-0.525-1.365-1.89-1.869
		c-1.827-0.651-2.688-1.659-2.688-2.876c0-1.638,1.323-2.981,3.506-2.981c1.029,0,1.932,0.294,2.499,0.63l-0.462,1.344
		c-0.399-0.252-1.134-0.588-2.079-0.588c-1.092,0-1.701,0.63-1.701,1.386c0,0.84,0.609,1.218,1.932,1.722
		c1.764,0.672,2.667,1.554,2.667,3.065c0,1.785-1.386,3.044-3.8,3.044c-1.113,0-2.142-0.273-2.855-0.693L95.899,233.648z"/>
	<path d="M106.693,222.457v2.918h2.646v1.407h-2.646v5.48c0,1.26,0.357,1.974,1.386,1.974c0.483,0,0.84-0.063,1.071-0.126
		l0.084,1.386c-0.357,0.147-0.924,0.252-1.638,0.252c-0.861,0-1.554-0.273-1.995-0.777c-0.525-0.546-0.714-1.449-0.714-2.646v-5.543
		h-1.575v-1.407h1.575v-2.436L106.693,222.457z"/>
	<path d="M117.045,235.538l-0.147-1.281h-0.063c-0.567,0.798-1.659,1.512-3.107,1.512c-2.058,0-3.107-1.449-3.107-2.918
		c0-2.457,2.184-3.8,6.11-3.779v-0.21c0-0.84-0.231-2.352-2.31-2.352c-0.945,0-1.932,0.294-2.646,0.756l-0.42-1.218
		c0.84-0.546,2.058-0.903,3.338-0.903c3.107,0,3.863,2.121,3.863,4.157v3.8c0,0.882,0.042,1.743,0.168,2.436H117.045z
		 M116.772,230.352c-2.016-0.042-4.304,0.315-4.304,2.289c0,1.197,0.798,1.764,1.743,1.764c1.323,0,2.163-0.84,2.457-1.701
		c0.063-0.189,0.105-0.399,0.105-0.588V230.352z"/>
	<path d="M130.295,225.375c-0.042,0.735-0.084,1.554-0.084,2.792v5.9c0,2.331-0.462,3.758-1.449,4.64
		c-0.987,0.924-2.415,1.218-3.695,1.218c-1.218,0-2.562-0.294-3.38-0.84l0.462-1.407c0.672,0.42,1.722,0.798,2.981,0.798
		c1.89,0,3.275-0.987,3.275-3.548v-1.134h-0.042c-0.567,0.945-1.659,1.701-3.233,1.701c-2.52,0-4.325-2.142-4.325-4.955
		c0-3.443,2.247-5.396,4.577-5.396c1.764,0,2.729,0.924,3.17,1.764h0.042l0.084-1.533H130.295z M128.385,229.386
		c0-0.315-0.021-0.588-0.105-0.84c-0.336-1.071-1.239-1.953-2.583-1.953c-1.764,0-3.023,1.491-3.023,3.842
		c0,1.995,1.008,3.653,3.002,3.653c1.134,0,2.163-0.714,2.562-1.89c0.105-0.315,0.147-0.672,0.147-0.987V229.386z"/>
	<path d="M135.21,222.52c0.021,0.63-0.441,1.134-1.176,1.134c-0.651,0-1.113-0.504-1.113-1.134c0-0.651,0.483-1.155,1.155-1.155
		C134.77,221.365,135.21,221.869,135.21,222.52z M133.153,235.538v-10.162H135v10.162H133.153z"/>
	<path d="M138.067,228.126c0-1.05-0.021-1.911-0.084-2.75h1.638l0.105,1.68h0.042c0.504-0.966,1.68-1.911,3.359-1.911
		c1.407,0,3.59,0.84,3.59,4.325v6.068h-1.848v-5.858c0-1.638-0.609-3.002-2.352-3.002c-1.218,0-2.163,0.861-2.478,1.89
		c-0.084,0.231-0.126,0.546-0.126,0.861v6.11h-1.848V228.126z"/>
	<path d="M158.477,225.375c-0.042,0.735-0.084,1.554-0.084,2.792v5.9c0,2.331-0.462,3.758-1.449,4.64
		c-0.987,0.924-2.415,1.218-3.695,1.218c-1.218,0-2.562-0.294-3.38-0.84l0.462-1.407c0.672,0.42,1.722,0.798,2.981,0.798
		c1.89,0,3.275-0.987,3.275-3.548v-1.134h-0.042c-0.567,0.945-1.659,1.701-3.233,1.701c-2.52,0-4.325-2.142-4.325-4.955
		c0-3.443,2.247-5.396,4.577-5.396c1.764,0,2.729,0.924,3.17,1.764h0.042l0.084-1.533H158.477z M156.566,229.386
		c0-0.315-0.021-0.588-0.105-0.84c-0.336-1.071-1.239-1.953-2.583-1.953c-1.764,0-3.023,1.491-3.023,3.842
		c0,1.995,1.008,3.653,3.002,3.653c1.134,0,2.163-0.714,2.562-1.89c0.105-0.315,0.147-0.672,0.147-0.987V229.386z"/>
	<path d="M160.348,238.078c1.491-2.079,2.646-4.808,2.646-8.587c0-3.758-1.134-6.446-2.646-8.524h1.428
		c1.344,1.722,2.75,4.409,2.75,8.545c0,4.115-1.407,6.782-2.75,8.566H160.348z"/>
</g>
<g>
	<g>
		<line fill="none" stroke="#000000" stroke-width="3" stroke-miterlimit="10" x1="287" y1="215.5" x2="428" y2="215.5"/>
		<g>
			<path d="M269,215.5c8.52,3.161,19.09,8.555,25.642,14.268l-5.161-14.268l5.161-14.265C288.09,206.948,277.52,212.342,269,215.5z"
				/>
		</g>
	</g>
</g>
<g>
	<rect x="355.424" y="192.186" fill="none" width="73.4" height="30"/>
	<path d="M382.379,207.096l-0.147-1.281h-0.063c-0.567,0.798-1.659,1.512-3.107,1.512c-2.058,0-3.107-1.449-3.107-2.918
		c0-2.457,2.184-3.8,6.11-3.779v-0.21c0-0.84-0.231-2.352-2.31-2.352c-0.945,0-1.932,0.294-2.646,0.756l-0.42-1.218
		c0.84-0.546,2.058-0.903,3.338-0.903c3.107,0,3.863,2.121,3.863,4.157v3.8c0,0.882,0.042,1.743,0.168,2.436H382.379z
		 M382.106,201.91c-2.016-0.042-4.304,0.315-4.304,2.289c0,1.197,0.798,1.764,1.743,1.764c1.323,0,2.163-0.84,2.457-1.701
		c0.063-0.189,0.105-0.399,0.105-0.588V201.91z"/>
	<path d="M395.65,192.188v12.283c0,0.903,0.021,1.932,0.084,2.625h-1.659l-0.084-1.764h-0.042c-0.567,1.134-1.806,1.995-3.464,1.995
		c-2.457,0-4.346-2.079-4.346-5.165c-0.021-3.38,2.079-5.459,4.556-5.459c1.554,0,2.604,0.735,3.065,1.554h0.042v-6.068H395.65z
		 M393.803,201.07c0-0.231-0.021-0.546-0.084-0.777c-0.273-1.176-1.281-2.142-2.667-2.142c-1.911,0-3.044,1.68-3.044,3.926
		c0,2.058,1.008,3.758,3.002,3.758c1.239,0,2.373-0.819,2.708-2.205c0.063-0.252,0.084-0.504,0.084-0.798V201.07z"/>
	<path d="M407.494,192.188v12.283c0,0.903,0.021,1.932,0.084,2.625h-1.659l-0.084-1.764h-0.042
		c-0.567,1.134-1.806,1.995-3.464,1.995c-2.457,0-4.346-2.079-4.346-5.165c-0.021-3.38,2.079-5.459,4.556-5.459
		c1.554,0,2.604,0.735,3.065,1.554h0.042v-6.068H407.494z M405.646,201.07c0-0.231-0.021-0.546-0.084-0.777
		c-0.273-1.176-1.281-2.142-2.667-2.142c-1.911,0-3.044,1.68-3.044,3.926c0,2.058,1.008,3.758,3.002,3.758
		c1.239,0,2.373-0.819,2.708-2.205c0.063-0.252,0.084-0.504,0.084-0.798V201.07z"/>
</g>
<g>
	<rect x="349.5" y="221.814" fill="none" width="86.399" height="30"/>
	<path d="M359.624,222.152c-1.533,2.058-2.646,4.787-2.646,8.587c0,3.737,1.155,6.425,2.646,8.524h-1.449
		c-1.323-1.743-2.75-4.43-2.75-8.524c0.021-4.136,1.428-6.824,2.75-8.587H359.624z"/>
	<path d="M361.326,234.834c0.546,0.357,1.512,0.735,2.436,0.735c1.344,0,1.974-0.672,1.974-1.512c0-0.882-0.525-1.365-1.89-1.869
		c-1.827-0.651-2.688-1.659-2.688-2.876c0-1.638,1.323-2.981,3.506-2.981c1.029,0,1.932,0.294,2.499,0.63l-0.462,1.344
		c-0.399-0.252-1.134-0.588-2.079-0.588c-1.092,0-1.701,0.63-1.701,1.386c0,0.84,0.609,1.218,1.932,1.722
		c1.764,0.672,2.667,1.554,2.667,3.065c0,1.785-1.386,3.044-3.8,3.044c-1.113,0-2.142-0.273-2.855-0.693L361.326,234.834z"/>
	<path d="M372.119,223.643v2.918h2.646v1.407h-2.646v5.48c0,1.26,0.357,1.974,1.386,1.974c0.483,0,0.84-0.063,1.071-0.126
		l0.084,1.386c-0.357,0.147-0.924,0.252-1.638,0.252c-0.861,0-1.554-0.273-1.995-0.777c-0.525-0.546-0.714-1.449-0.714-2.646v-5.543
		h-1.575v-1.407h1.575v-2.436L372.119,223.643z"/>
	<path d="M382.471,236.724l-0.147-1.281h-0.063c-0.567,0.798-1.659,1.512-3.107,1.512c-2.058,0-3.107-1.449-3.107-2.918
		c0-2.457,2.184-3.8,6.11-3.779v-0.21c0-0.84-0.231-2.352-2.31-2.352c-0.945,0-1.932,0.294-2.646,0.756l-0.42-1.218
		c0.84-0.546,2.058-0.903,3.338-0.903c3.107,0,3.863,2.121,3.863,4.157v3.8c0,0.882,0.042,1.743,0.168,2.436H382.471z
		 M382.198,231.538c-2.016-0.042-4.304,0.315-4.304,2.289c0,1.197,0.798,1.764,1.743,1.764c1.323,0,2.163-0.84,2.457-1.701
		c0.063-0.189,0.105-0.399,0.105-0.588V231.538z"/>
	<path d="M395.722,226.562c-0.042,0.735-0.084,1.554-0.084,2.792v5.9c0,2.331-0.462,3.758-1.449,4.64
		c-0.987,0.924-2.415,1.218-3.695,1.218c-1.218,0-2.562-0.294-3.38-0.84l0.462-1.407c0.672,0.42,1.722,0.798,2.981,0.798
		c1.89,0,3.275-0.987,3.275-3.548v-1.134h-0.042c-0.567,0.945-1.659,1.701-3.233,1.701c-2.52,0-4.325-2.142-4.325-4.955
		c0-3.443,2.247-5.396,4.577-5.396c1.764,0,2.729,0.924,3.17,1.764h0.042l0.084-1.533H395.722z M393.811,230.572
		c0-0.315-0.021-0.588-0.105-0.84c-0.336-1.071-1.239-1.953-2.583-1.953c-1.764,0-3.023,1.491-3.023,3.842
		c0,1.995,1.008,3.653,3.002,3.653c1.134,0,2.163-0.714,2.562-1.89c0.105-0.315,0.147-0.672,0.147-0.987V230.572z"/>
	<path d="M400.637,223.706c0.021,0.63-0.441,1.134-1.176,1.134c-0.651,0-1.113-0.504-1.113-1.134c0-0.651,0.483-1.155,1.155-1.155
		C400.196,222.551,400.637,223.055,400.637,223.706z M398.579,236.724v-10.162h1.848v10.162H398.579z"/>
	<path d="M403.493,229.312c0-1.05-0.021-1.911-0.084-2.75h1.638l0.105,1.68h0.042c0.504-0.966,1.68-1.911,3.359-1.911
		c1.407,0,3.59,0.84,3.59,4.325v6.068h-1.848v-5.858c0-1.638-0.609-3.002-2.352-3.002c-1.218,0-2.163,0.861-2.478,1.89
		c-0.084,0.231-0.126,0.546-0.126,0.861v6.11h-1.848V229.312z"/>
	<path d="M423.903,226.562c-0.042,0.735-0.084,1.554-0.084,2.792v5.9c0,2.331-0.462,3.758-1.448,4.64
		c-0.987,0.924-2.415,1.218-3.695,1.218c-1.219,0-2.562-0.294-3.381-0.84l0.462-1.407c0.672,0.42,1.722,0.798,2.981,0.798
		c1.89,0,3.275-0.987,3.275-3.548v-1.134h-0.042c-0.567,0.945-1.659,1.701-3.233,1.701c-2.52,0-4.325-2.142-4.325-4.955
		c0-3.443,2.247-5.396,4.577-5.396c1.764,0,2.729,0.924,3.17,1.764h0.043l0.084-1.533H423.903z M421.992,230.572
		c0-0.315-0.021-0.588-0.104-0.84c-0.336-1.071-1.239-1.953-2.583-1.953c-1.764,0-3.023,1.491-3.023,3.842
		c0,1.995,1.008,3.653,3.003,3.653c1.134,0,2.163-0.714,2.562-1.89c0.105-0.315,0.146-0.672,0.146-0.987V230.572z"/>
	<path d="M425.773,239.264c1.491-2.079,2.646-4.808,2.646-8.587c0-3.758-1.135-6.446-2.646-8.524h1.428
		c1.344,1.722,2.751,4.409,2.751,8.545c0,4.115-1.407,6.782-2.751,8.566H425.773z"/>
</g>
</svg>
